<svg width="30" height="29" viewBox="0 0 30 29" fill="none" xmlns="http://www.w3.org/2000/svg">
<path d="M10.3141 16.0199H19.7176V13.669H10.3141V16.0199ZM10.3141 19.5462H19.7176V17.1953H10.3141V19.5462ZM10.3141 23.0726H16.1913V20.7217H10.3141V23.0726ZM7.96318 26.599C7.31669 26.599 6.76345 26.369 6.30346 25.909C5.84347 25.449 5.61309 24.8954 5.6123 24.2481V5.44076C5.6123 4.79426 5.84269 4.24101 6.30346 3.78101C6.76423 3.32102 7.31747 3.09063 7.96318 3.08984H17.3667L24.4193 10.1426V24.2481C24.4193 24.8946 24.1893 25.4482 23.7293 25.909C23.2694 26.3698 22.7157 26.5998 22.0684 26.599H7.96318ZM16.1913 11.318H22.0684L16.1913 5.44076V11.318Z" fill="#1745FF"/>
</svg>
