<svg width="32" height="33" viewBox="0 0 32 33" fill="none" xmlns="http://www.w3.org/2000/svg">
<path d="M13.6838 28.4993C13.9179 28.9047 14.2545 29.2413 14.6599 29.4753C15.0653 29.7094 15.5251 29.8326 15.9932 29.8326C16.4612 29.8326 16.9211 29.7094 17.3264 29.4753C17.7318 29.2413 18.0684 28.9047 18.3025 28.4993M4.3425 20.934C4.16832 21.1249 4.05337 21.3623 4.01164 21.6174C3.96991 21.8724 4.00319 22.1341 4.10744 22.3705C4.21169 22.607 4.38241 22.8081 4.59884 22.9493C4.81527 23.0905 5.06807 23.1658 5.3265 23.166H26.6598C26.9182 23.1661 27.1711 23.0911 27.3877 22.9502C27.6042 22.8092 27.7752 22.6083 27.8797 22.372C27.9842 22.1357 28.0178 21.8741 27.9764 21.6191C27.935 21.364 27.8204 21.1265 27.6465 20.9353C25.8732 19.1073 23.9932 17.1647 23.9932 11.166C23.9932 9.04428 23.1503 7.00945 21.65 5.50916C20.1497 4.00887 18.1149 3.16602 15.9932 3.16602C13.8714 3.16602 11.8366 4.00887 10.3363 5.50916C8.83602 7.00945 7.99317 9.04428 7.99317 11.166C7.99317 17.1647 6.11183 19.1073 4.3425 20.934Z" stroke="#0037C1" stroke-width="4" stroke-linecap="round" stroke-linejoin="round"/>
</svg>
