<svg width="34" height="34" viewBox="0 0 34 34" fill="none" xmlns="http://www.w3.org/2000/svg">
<path d="M27.7667 29.75L18.8417 20.825C18.1333 21.3917 17.3188 21.8403 16.3979 22.1708C15.4771 22.5014 14.4972 22.6667 13.4583 22.6667C10.8847 22.6667 8.70683 21.7751 6.92467 19.992C5.1425 18.2089 4.25095 16.031 4.25 13.4583C4.24906 10.8857 5.14061 8.70778 6.92467 6.92467C8.70872 5.14156 10.8866 4.25 13.4583 4.25C16.0301 4.25 18.2084 5.14156 19.9934 6.92467C21.7784 8.70778 22.6695 10.8857 22.6667 13.4583C22.6667 14.4972 22.5014 15.4771 22.1708 16.3979C21.8403 17.3187 21.3917 18.1333 20.825 18.8417L29.75 27.7667L27.7667 29.75ZM13.4583 19.8333C15.2292 19.8333 16.7346 19.2138 17.9747 17.9747C19.2147 16.7356 19.8343 15.2301 19.8333 13.4583C19.8324 11.6866 19.2128 10.1816 17.9747 8.94342C16.7365 7.70525 15.2311 7.08522 13.4583 7.08333C11.6856 7.08144 10.1806 7.70147 8.94342 8.94342C7.7062 10.1854 7.08617 11.6903 7.08333 13.4583C7.0805 15.2263 7.70053 16.7318 8.94342 17.9747C10.1863 19.2176 11.6913 19.8371 13.4583 19.8333Z" fill="#1745FF"/>
</svg>
