<svg width="54" height="33" viewBox="0 0 54 33" fill="none" xmlns="http://www.w3.org/2000/svg">
<path fill-rule="evenodd" clip-rule="evenodd" d="M51.3041 27.1667C52.7931 27.1667 54 28.3507 54 29.8333C54 31.3067 52.7958 32.5 51.3041 32.5H2.69596C2.34143 32.5005 1.99029 32.4319 1.6627 32.298C1.3351 32.1641 1.03751 31.9677 0.787011 31.7199C0.536509 31.4721 0.338033 31.1779 0.202976 30.8541C0.0679202 30.5304 -0.00105499 30.1835 1.21968e-05 29.8333C1.21968e-05 28.36 1.20421 27.1667 2.69596 27.1667H51.3041ZM51.3041 13.8333C52.7931 13.8333 54 15.0173 54 16.5C54 17.9733 52.7958 19.1667 51.3041 19.1667H2.69596C2.34143 19.1672 1.99029 19.0985 1.6627 18.9647C1.3351 18.8308 1.03751 18.6343 0.787011 18.3866C0.536509 18.1388 0.338033 17.8446 0.202976 17.5208C0.0679202 17.1971 -0.00105499 16.8501 1.21968e-05 16.5C1.21968e-05 15.0267 1.20421 13.8333 2.69596 13.8333H51.3041ZM51.3041 0.5C52.7931 0.5 54 1.684 54 3.16667C54 4.64 52.7958 5.83333 51.3041 5.83333H2.69596C2.34143 5.83386 1.99029 5.76522 1.6627 5.63134C1.3351 5.49747 1.03751 5.301 0.787011 5.05322C0.536509 4.80544 0.338033 4.51123 0.202976 4.18748C0.0679202 3.86373 -0.00105499 3.51682 1.21968e-05 3.16667C1.21968e-05 1.69333 1.20421 0.5 2.69596 0.5H51.3041Z" fill="#0037C1"/>
</svg>
