<svg width="39" height="33" viewBox="0 0 39 33" fill="none" xmlns="http://www.w3.org/2000/svg">
<path d="M28.2471 20.4382L18.6221 30.0632L14.2471 25.6882M7.24706 25.2384C5.64213 24.1202 4.32831 22.6339 3.41552 20.9039C2.50274 19.1738 2.01752 17.2503 2.00047 15.2943C1.98341 13.3383 2.43501 11.4066 3.3175 9.66094C4.19998 7.91524 5.48768 6.40625 7.07287 5.2602C8.65806 4.11416 10.4947 3.36438 12.429 3.07361C14.3633 2.78283 16.3392 2.9595 18.1913 3.58885C20.0434 4.21819 21.7178 5.28191 23.0745 6.69101C24.4312 8.10011 25.4308 9.81362 25.9896 11.6882H29.1221C30.9792 11.6889 32.7763 12.346 34.1959 13.5433C35.6156 14.7406 36.5664 16.401 36.8805 18.2314C37.1945 20.0618 36.8516 21.9443 35.9123 23.5463C34.973 25.1484 33.4977 26.3669 31.7471 26.9867" stroke="#0037C1" stroke-width="4" stroke-linecap="round" stroke-linejoin="round"/>
</svg>
