<svg width="20" height="24" viewBox="0 0 20 24" fill="none" xmlns="http://www.w3.org/2000/svg">
<path fill-rule="evenodd" clip-rule="evenodd" d="M0 2.4C0 1.76348 0.243131 1.15303 0.675908 0.702944C1.10868 0.252856 1.69565 0 2.30769 0L14.9338 0L20 5.2688V21.6C20 22.2365 19.7569 22.847 19.3241 23.2971C18.8913 23.7471 18.3043 24 17.6923 24H2.30769C1.69565 24 1.10868 23.7471 0.675908 23.2971C0.243131 22.847 0 22.2365 0 21.6V2.4ZM3.84615 9.6H1.53846V17.6H3.07692V14.4H3.84615C4.45819 14.4 5.04516 14.1471 5.47794 13.6971C5.91072 13.247 6.15385 12.6365 6.15385 12C6.15385 11.3635 5.91072 10.753 5.47794 10.3029C5.04516 9.85286 4.45819 9.6 3.84615 9.6ZM10 9.6H7.69231V17.6H10C10.612 17.6 11.199 17.3471 11.6318 16.8971C12.0646 16.447 12.3077 15.8365 12.3077 15.2V12C12.3077 11.3635 12.0646 10.753 11.6318 10.3029C11.199 9.85286 10.612 9.6 10 9.6ZM13.8462 17.6V9.6H18.4615V11.2H15.3846V12.8H16.9231V14.4H15.3846V17.6H13.8462Z" fill="#FF1212"/>
</svg>
