<svg width="29" height="29" viewBox="0 0 29 29" fill="none" xmlns="http://www.w3.org/2000/svg">
<path fill-rule="evenodd" clip-rule="evenodd" d="M14.1055 2.35156V9.99177C14.1055 10.4594 14.2912 10.9078 14.6219 11.2385C14.9525 11.5691 15.401 11.7549 15.8686 11.7549H23.5088V23.5091C23.5088 24.1325 23.2611 24.7305 22.8203 25.1714C22.3794 25.6122 21.7815 25.8599 21.158 25.8599H7.05298C6.4295 25.8599 5.83156 25.6122 5.39069 25.1714C4.94982 24.7305 4.70215 24.1325 4.70215 23.5091V4.7024C4.70215 4.07892 4.94982 3.48097 5.39069 3.04011C5.83156 2.59924 6.4295 2.35156 7.05298 2.35156H14.1055ZM12.943 13.9271C12.6616 15.7173 11.7254 17.3392 10.3159 18.4783C9.27334 19.3199 10.2266 20.9713 11.4773 20.4906C13.1685 19.8392 15.0413 19.8392 16.7325 20.4906C17.9832 20.9725 18.9364 19.3211 17.8938 18.4783C16.4844 17.3392 15.5482 15.7173 15.2668 13.9271C15.0587 12.6035 13.151 12.6024 12.943 13.9271ZM14.1055 16.8127L15.0529 18.4512H13.1604L14.1055 16.8127ZM16.4563 2.40211C16.9017 2.49656 17.31 2.71828 17.6317 3.04036L22.82 8.22865C23.1421 8.55039 23.3638 8.95872 23.4583 9.40406H16.4563V2.40211Z" fill="#FF1212"/>
</svg>
