<svg width="29" height="29" viewBox="0 0 29 29" fill="none" xmlns="http://www.w3.org/2000/svg">
<g clip-path="url(#clip0_596_1152)">
<path d="M16.3848 0H7.05262C6.1174 0 5.22048 0.371515 4.55918 1.03281C3.89788 1.69411 3.52637 2.59103 3.52637 3.52625V24.6837C3.52637 25.619 3.89788 26.5159 4.55918 27.1772C5.22048 27.8385 6.1174 28.21 7.05262 28.21H21.1576C22.0928 28.21 22.9898 27.8385 23.6511 27.1772C24.3124 26.5159 24.6839 25.619 24.6839 24.6837V8.29903C24.6838 7.83146 24.4979 7.38307 24.1673 7.0525L17.6314 0.516596C17.3008 0.185923 16.8524 9.98588e-05 16.3848 0ZM16.7498 6.17094V2.64469L22.0392 7.93406H18.5129C18.0453 7.93406 17.5969 7.7483 17.2662 7.41765C16.9356 7.087 16.7498 6.63855 16.7498 6.17094ZM10.3743 11.7777L14.1051 16.2542L17.8359 11.7759C17.9858 11.5963 18.2008 11.4837 18.4338 11.4627C18.6667 11.4417 18.8984 11.5141 19.078 11.664C19.2576 11.8138 19.3702 12.0289 19.3912 12.2618C19.4122 12.4948 19.3398 12.7265 19.19 12.9061L15.2529 17.6312L19.19 22.3564C19.333 22.5367 19.3999 22.7658 19.3763 22.9947C19.3527 23.2236 19.2405 23.4343 19.0637 23.5816C18.8869 23.7289 18.6595 23.8013 18.4301 23.7832C18.2007 23.7651 17.9874 23.658 17.8359 23.4848L14.1051 19.0083L10.3743 23.4866C10.2245 23.6661 10.0094 23.7788 9.77647 23.7998C9.54353 23.8208 9.31179 23.7484 9.13222 23.5985C8.95266 23.4487 8.83999 23.2336 8.81899 23.0007C8.798 22.7677 8.8704 22.536 9.02026 22.3564L12.9573 17.6312L9.02026 12.9061C8.94287 12.8176 8.88394 12.7145 8.84696 12.603C8.80998 12.4914 8.79569 12.3735 8.80492 12.2563C8.81416 12.1392 8.84674 12.025 8.90075 11.9206C8.95475 11.8162 9.02909 11.7236 9.1194 11.6484C9.2097 11.5731 9.31414 11.5167 9.42658 11.4824C9.53901 11.4481 9.65717 11.4367 9.7741 11.4487C9.89103 11.4607 10.0044 11.4961 10.1075 11.5526C10.2105 11.609 10.3013 11.6856 10.3743 11.7777Z" fill="#008C32"/>
</g>
<defs>
<clipPath id="clip0_596_1152">
<rect width="28.21" height="28.21" fill="white"/>
</clipPath>
</defs>
</svg>
