<svg width="20" height="24" viewBox="0 0 20 24" fill="none" xmlns="http://www.w3.org/2000/svg">
<path d="M3.33333 0C1.49479 0 0 1.34531 0 3V21C0 22.6547 1.49479 24 3.33333 24H16.6667C18.5052 24 20 22.6547 20 21V7.5H13.3333C12.4115 7.5 11.6667 6.82969 11.6667 6V0H3.33333ZM13.3333 0V6H20L13.3333 0ZM8.10937 11.7281L10 14.1609L11.8906 11.7281C12.2865 11.2172 13.0677 11.0953 13.6302 11.4516C14.1927 11.8078 14.3333 12.5109 13.9375 13.0172L11.526 16.125L13.9427 19.2281C14.3385 19.7391 14.2031 20.4375 13.6354 20.7938C13.0677 21.15 12.2917 21.0281 11.8958 20.5172L10 18.0844L8.10937 20.5172C7.71354 21.0281 6.93229 21.15 6.36979 20.7938C5.80729 20.4375 5.66667 19.7344 6.0625 19.2281L8.47396 16.125L6.05729 13.0219C5.66146 12.5109 5.79687 11.8125 6.36458 11.4562C6.93229 11.1 7.70833 11.2219 8.10417 11.7328L8.10937 11.7281Z" fill="#008C32"/>
</svg>
