<svg width="30" height="30" viewBox="0 0 30 30" fill="none" xmlns="http://www.w3.org/2000/svg">
<path d="M19.296 2.14453H4.44824V28.4577H25.9771V8.82568L19.296 2.14453ZM18.2028 9.91887V4.53664L23.585 9.91887H18.2028ZM18.8008 14.8789C18.8009 15.2004 18.736 15.5187 18.6103 15.8146C18.4845 16.1105 18.3004 16.3781 18.0689 16.6012L16.9362 17.6932L18.0689 18.7864C18.3004 19.0096 18.4845 19.2771 18.6103 19.573C18.736 19.8689 18.8009 20.1872 18.8008 20.5087V22.4774H16.4087V20.5087L15.2127 19.3545L14.0166 20.5087V22.4774H11.6245V20.5087C11.6245 20.1872 11.6894 19.8689 11.8151 19.573C11.9409 19.2771 12.125 19.0096 12.3565 18.7864L13.4892 17.6932L12.3565 16.6C12.125 16.3769 11.9409 16.1093 11.8151 15.8134C11.6894 15.5175 11.6245 15.1992 11.6245 14.8777V12.909H14.0166V14.8777L15.2127 16.0319L16.4087 14.8777V12.909H18.8008V14.8789Z" fill="#008C32"/>
</svg>
