<svg width="19" height="23" viewBox="0 0 19 23" fill="none" xmlns="http://www.w3.org/2000/svg">
<path d="M3.16667 0C1.42005 0 0 1.28926 0 2.875V20.125C0 21.7107 1.42005 23 3.16667 23H15.8333C17.5799 23 19 21.7107 19 20.125V7.1875H12.6667C11.7909 7.1875 11.0833 6.54512 11.0833 5.75V0H3.16667ZM12.6667 0V5.75H19L12.6667 0ZM7.70391 11.2395L9.5 13.5709L11.2961 11.2395C11.6721 10.7498 12.4143 10.633 12.9487 10.9744C13.4831 11.3158 13.6167 11.9896 13.2406 12.4748L10.9497 15.4531L13.2456 18.427C13.6216 18.9166 13.493 19.5859 12.9536 19.9273C12.4143 20.2688 11.6771 20.152 11.301 19.6623L9.5 17.3309L7.70391 19.6623C7.32786 20.152 6.58568 20.2688 6.0513 19.9273C5.51693 19.5859 5.38333 18.9121 5.75937 18.427L8.05026 15.4531L5.75443 12.4793C5.37839 11.9896 5.50703 11.3203 6.04635 10.9789C6.58568 10.6375 7.32292 10.7543 7.69896 11.2439L7.70391 11.2395Z" fill="#008C32"/>
</svg>
