<svg width="90" height="106" viewBox="0 0 90 106" fill="none" xmlns="http://www.w3.org/2000/svg">
<path d="M69.5 3.35461L12.0284 3.02853C9.2559 3.0128 7 5.25594 7 8.02845V98C7 100.761 9.23858 103 12 103H82C84.7614 103 87 100.761 87 98V23.2128M69.5 3.35461V18.2128C69.5 20.9742 71.7386 23.2128 74.5 23.2128H87M69.5 3.35461L87 23.2128" stroke="#2651FF" stroke-width="6"/>
<path d="M69.5 42C73.9183 42 77.5 45.5817 77.5 50V67C77.5 71.4183 73.9183 75 69.5 75H8.5C4.08172 75 0.5 71.4183 0.5 67V50C0.5 45.5817 4.08172 42 8.5 42H69.5ZM39.5039 49.8164C38.144 49.8164 36.8799 50.0319 35.7119 50.4639C34.56 50.8958 33.5599 51.5116 32.7119 52.3115C31.8639 53.0955 31.1997 54.0237 30.7197 55.0957C30.2558 56.1516 30.0245 57.3198 30.0244 58.5996C30.0244 59.8634 30.2559 61.0317 30.7197 62.1035C31.1997 63.1755 31.8639 64.1121 32.7119 64.9121C33.5599 65.6961 34.5599 66.3043 35.7119 66.7363C36.8799 67.1683 38.144 67.3838 39.5039 67.3838C40.8798 67.3838 42.144 67.1683 43.2959 66.7363C44.4478 66.3044 45.4479 65.696 46.2959 64.9121C47.1439 64.1121 47.7997 63.1755 48.2637 62.1035C48.7436 61.0316 48.9844 59.8635 48.9844 58.5996C48.9843 57.3198 48.7436 56.1516 48.2637 55.0957C47.7997 54.0239 47.1438 53.0954 46.2959 52.3115C45.448 51.5117 44.4477 50.8958 43.2959 50.4639C42.144 50.0319 40.8798 49.8164 39.5039 49.8164ZM59.7275 49.8164C58.3837 49.8164 57.1353 50.0319 55.9834 50.4639C54.8476 50.8798 53.8557 51.4798 53.0078 52.2637C52.1758 53.0477 51.5275 53.9759 51.0635 55.0479C50.5995 56.1197 50.3682 57.3038 50.3682 58.5996C50.3682 59.8956 50.5995 61.0803 51.0635 62.1523C51.5274 63.2242 52.176 64.1516 53.0078 64.9355C53.8557 65.7194 54.8476 66.3278 55.9834 66.7598C57.1353 67.1757 58.3837 67.3838 59.7275 67.3838C61.3755 67.3838 62.8317 67.0955 64.0957 66.5195C65.3755 65.9276 66.4317 65.0962 67.2637 64.0244L63.6875 60.832C63.1916 61.4558 62.64 61.9439 62.0322 62.2959C61.4402 62.6319 60.7676 62.7998 60.0156 62.7998C59.4238 62.7998 58.8881 62.7036 58.4082 62.5117C57.9282 62.3197 57.5121 62.0398 57.1602 61.6719C56.8242 61.3039 56.5602 60.8636 56.3682 60.3516C56.1762 59.8236 56.0801 59.2395 56.0801 58.5996C56.0801 57.9598 56.1762 57.384 56.3682 56.8721C56.5602 56.3441 56.8242 55.8963 57.1602 55.5283C57.5122 55.1603 57.9282 54.8805 58.4082 54.6885C58.8881 54.4965 59.4238 54.4004 60.0156 54.4004C60.7676 54.4004 61.4402 54.5757 62.0322 54.9277C62.6401 55.2637 63.1916 55.7443 63.6875 56.3682L67.2637 53.1758C66.4317 52.0879 65.3756 51.2556 64.0957 50.6797C62.8318 50.1038 61.3754 49.8164 59.7275 49.8164ZM10.8682 50.2002V67H19.1484C21.0202 66.9999 22.668 66.6641 24.0918 65.9922C25.5158 65.3042 26.6277 64.3359 27.4277 63.0879C28.2277 61.8239 28.6279 60.3276 28.6279 58.5996C28.6279 56.8558 28.2276 55.3602 27.4277 54.1123C26.6277 52.8643 25.5158 51.9044 24.0918 51.2324C22.6679 50.5445 21.0203 50.2002 19.1484 50.2002H10.8682ZM39.5039 54.4004C40.0319 54.4004 40.5198 54.4965 40.9678 54.6885C41.4318 54.8805 41.832 55.1603 42.168 55.5283C42.5199 55.8803 42.7924 56.3198 42.9844 56.8477C43.1763 57.3596 43.2724 57.9438 43.2725 58.5996C43.2725 59.2556 43.1764 59.848 42.9844 60.376C42.7924 60.888 42.52 61.3283 42.168 61.6963C41.832 62.0482 41.4317 62.3198 40.9678 62.5117C40.5198 62.7037 40.0318 62.7998 39.5039 62.7998C38.9761 62.7998 38.4804 62.7036 38.0166 62.5117C37.5687 62.3198 37.1683 62.0482 36.8164 61.6963C36.4804 61.3283 36.2164 60.8879 36.0244 60.376C35.8324 59.848 35.7363 59.2556 35.7363 58.5996C35.7364 57.9438 35.8325 57.3596 36.0244 56.8477C36.2164 56.3198 36.4805 55.8802 36.8164 55.5283C37.1684 55.1603 37.5686 54.8805 38.0166 54.6885C38.4805 54.4966 38.9761 54.4004 39.5039 54.4004ZM18.9082 54.6162C19.7081 54.6162 20.4041 54.7683 20.9961 55.0723C21.604 55.3763 22.0761 55.8241 22.4121 56.416C22.748 57.0079 22.916 57.7358 22.916 58.5996C22.916 59.4476 22.7481 60.1762 22.4121 60.7842C22.0761 61.3761 21.604 61.8239 20.9961 62.1279C20.4041 62.4319 19.7081 62.584 18.9082 62.584H16.5322V54.6162H18.9082Z" fill="#2651FF"/>
</svg>
