<svg width="90" height="106" viewBox="0 0 90 106" fill="none" xmlns="http://www.w3.org/2000/svg">
<path d="M69 3.35461L11.5284 3.02853C8.7559 3.0128 6.5 5.25594 6.5 8.02845V98C6.5 100.761 8.73858 103 11.5 103H81.5C84.2614 103 86.5 100.761 86.5 98V23.2128M69 3.35461V18.2128C69 20.9742 71.2386 23.2128 74 23.2128H86.5M69 3.35461L86.5 23.2128" stroke="#81BFDE" stroke-width="6"/>
<path d="M69.5 42C73.9183 42 77.5 45.5817 77.5 50V67C77.5 71.4183 73.9183 75 69.5 75H8.5C4.08172 75 0.5 71.4183 0.5 67V50C0.5 45.5817 4.08172 42 8.5 42H69.5ZM9.36816 50.2002V67H22.6162V62.6084H15.0322V50.2002H9.36816ZM24.1807 50.2002V67H29.8447V50.2002H24.1807ZM32.5713 50.2002V67H38.0908V59.3604L44.4756 67H49.1309V50.2002H43.6113V57.8389L37.2275 50.2002H32.5713ZM51.8604 50.2002V67H57.4277V62.8398L58.6885 61.4385L62.9004 67H69.4521L62.3936 57.6035L69.1162 50.2002H62.9482L57.4277 56.2842V50.2002H51.8604Z" fill="#81BFDE"/>
</svg>
