<svg width="94" height="106" viewBox="0 0 94 106" fill="none" xmlns="http://www.w3.org/2000/svg">
<path d="M73.5 3.35461L16.0284 3.02853C13.2559 3.0128 11 5.25594 11 8.02845V98C11 100.761 13.2386 103 16 103H86C88.7614 103 91 100.761 91 98V23.2128M73.5 3.35461V18.2128C73.5 20.9742 75.7386 23.2128 78.5 23.2128H91M73.5 3.35461L91 23.2128" stroke="white" stroke-width="6"/>
<path d="M69.5 42C73.9183 42 77.5 45.5817 77.5 50V67C77.5 71.4183 73.9183 75 69.5 75H8.5C4.08172 75 0.5 71.4183 0.5 67V50C0.5 45.5817 4.08172 42 8.5 42H69.5ZM55.5254 49.8164C53.7974 49.8164 52.3487 50.072 51.1807 50.584C50.0288 51.096 49.1574 51.7845 48.5654 52.6484C47.9895 53.4964 47.7012 54.4405 47.7012 55.4805C47.7012 56.3763 47.8691 57.1284 48.2051 57.7363C48.5411 58.3282 48.9815 58.8078 49.5254 59.1758C50.0853 59.5437 50.6928 59.8405 51.3486 60.0645C52.0206 60.2884 52.6849 60.4722 53.3408 60.6162C53.9967 60.7442 54.5967 60.872 55.1406 61C55.7006 61.112 56.1494 61.2556 56.4854 61.4316C56.8213 61.6076 56.9893 61.8484 56.9893 62.1523C56.9892 62.3442 56.9173 62.5124 56.7734 62.6562C56.6295 62.7842 56.397 62.8878 56.0771 62.9678C55.7731 63.0318 55.3487 63.0645 54.8047 63.0645C53.8768 63.0644 52.9167 62.9282 51.9248 62.6562C50.9488 62.3683 50.0607 61.9923 49.2607 61.5283L47.4365 65.6562C48.2845 66.1682 49.3648 66.5843 50.6768 66.9043C51.9887 67.2243 53.3489 67.3838 54.7568 67.3838C56.5006 67.3838 57.9487 67.1281 59.1006 66.6162C60.2526 66.0882 61.1174 65.3998 61.6934 64.5518C62.2852 63.6878 62.5811 62.7436 62.5811 61.7197C62.581 60.8398 62.4131 60.1037 62.0771 59.5117C61.7412 58.9199 61.2932 58.4402 60.7334 58.0723C60.1894 57.7043 59.5886 57.4076 58.9326 57.1836C58.2769 56.9597 57.6131 56.7842 56.9414 56.6562C56.2855 56.5283 55.6771 56.4079 55.1172 56.2959C54.5732 56.1839 54.1329 56.0477 53.7969 55.8877C53.4612 55.7118 53.2931 55.4801 53.293 55.1924C53.293 55.0004 53.3574 54.8241 53.4854 54.6641C53.6293 54.5042 53.861 54.3762 54.1807 54.2803C54.5006 54.1843 54.9328 54.1358 55.4766 54.1357C56.2126 54.1357 56.9654 54.2402 57.7334 54.4482C58.5173 54.6562 59.3254 54.9679 60.1572 55.3838L61.8613 51.2803C60.9813 50.7843 59.9888 50.4158 58.8848 50.1758C57.781 49.9358 56.6612 49.8164 55.5254 49.8164ZM14.5244 50.2002L20.3779 58.5156L14.3076 67H20.7637L23.5938 62.5078L26.5 67H32.9805L26.7822 58.3184L32.6201 50.2002H26.5244L23.7412 54.4219L20.8838 50.2002H14.5244ZM33.6807 50.2002V67H46.9287V62.6084H39.3447V50.2002H33.6807Z" fill="white"/>
</svg>
