<svg width="89" height="106" viewBox="0 0 89 106" fill="none" xmlns="http://www.w3.org/2000/svg">
<path d="M68.5 3.32617L11.0284 3.00009C8.2559 2.98436 6 5.2275 6 8.00001V97.9716C6 100.733 8.23858 102.972 11 102.972H81C83.7614 102.972 86 100.733 86 97.9716V23.1843M68.5 3.32617V18.1843C68.5 20.9457 70.7386 23.1843 73.5 23.1843H86M68.5 3.32617L86 23.1843" stroke="#FFBC02" stroke-width="6"/>
<path d="M70 41.9716C74.4183 41.9716 78 45.5533 78 49.9716V66.9716C78 71.3898 74.4183 74.9716 70 74.9716H8C3.58172 74.9716 0 71.3898 0 66.9716V49.9716C0 45.5533 3.58172 41.9716 8 41.9716H70ZM8.86816 50.1718V66.9716H14.5322V62.8436H16.9561C18.524 62.8436 19.8757 62.5871 21.0117 62.0751C22.1635 61.5472 23.0518 60.8118 23.6758 59.868C24.2998 58.9241 24.6123 57.8036 24.6123 56.5077C24.6123 55.2117 24.2998 54.0913 23.6758 53.1473C23.0518 52.1875 22.1636 51.4513 21.0117 50.9393C19.8758 50.4274 18.5239 50.1718 16.9561 50.1718H8.86816ZM26.4697 50.1718V66.9716H32.1338V62.8436H34.5576C36.1256 62.8436 37.4773 62.5871 38.6133 62.0751C39.7651 61.5472 40.6534 60.8118 41.2773 59.868C41.9013 58.9241 42.2138 57.8036 42.2139 56.5077C42.2139 55.2117 41.9013 54.0913 41.2773 53.1473C40.6534 52.1875 39.7652 51.4513 38.6133 50.9393C37.4774 50.4274 36.1254 50.1718 34.5576 50.1718H26.4697ZM42.1895 50.1718V54.5634H47.1094V66.9716H52.7734V54.5634H57.6934V51.0214L62.9482 58.4872L56.8779 66.9716H63.334L66.1641 62.4794L69.0703 66.9716H75.5508L69.3525 58.2899L75.1904 50.1718H69.0947L66.3115 54.3934L63.4541 50.1718H42.1895ZM34.1973 54.5399C34.9812 54.5399 35.5578 54.7153 35.9258 55.0673C36.3098 55.4193 36.502 55.8997 36.502 56.5077C36.5019 57.1155 36.3095 57.5952 35.9258 57.9471C35.5578 58.2991 34.9813 58.4755 34.1973 58.4755H32.1338V54.5399H34.1973ZM16.5957 54.5399C17.3797 54.5399 17.9562 54.7153 18.3242 55.0673C18.7082 55.4193 18.9004 55.8997 18.9004 56.5077C18.9004 57.1155 18.708 57.5952 18.3242 57.9471C17.9562 58.2991 17.3797 58.4755 16.5957 58.4755H14.5322V54.5399H16.5957Z" fill="#FFBC02"/>
</svg>
