<svg width="94" height="106" viewBox="0 0 94 106" fill="none" xmlns="http://www.w3.org/2000/svg">
<path d="M73 3.35461L15.5284 3.02853C12.7559 3.0128 10.5 5.25594 10.5 8.02845V98C10.5 100.761 12.7386 103 15.5 103H85.5C88.2614 103 90.5 100.761 90.5 98V23.2128M73 3.35461V18.2128C73 20.9742 75.2386 23.2128 78 23.2128H90.5M73 3.35461L90.5 23.2128" stroke="white" stroke-width="6"/>
<path d="M69 42C73.4183 42 77 45.5817 77 50V67C77 71.4183 73.4183 75 69 75H8C3.58172 75 0 71.4183 0 67V50C0 45.5817 3.58172 42 8 42H69ZM56.4316 49.8164C54.7036 49.8164 53.2549 50.072 52.0869 50.584C50.9351 51.096 50.0636 51.7845 49.4717 52.6484C48.8957 53.4964 48.6074 54.4405 48.6074 55.4805C48.6075 56.3763 48.7754 57.1284 49.1113 57.7363C49.4473 58.3282 49.8877 58.8078 50.4316 59.1758C50.9915 59.5437 51.599 59.8405 52.2549 60.0645C52.9268 60.2884 53.5911 60.4722 54.2471 60.6162C54.9029 60.7442 55.503 60.872 56.0469 61C56.6069 61.112 57.0556 61.2556 57.3916 61.4316C57.7275 61.6076 57.8955 61.8484 57.8955 62.1523C57.8954 62.3442 57.8235 62.5124 57.6797 62.6562C57.5357 62.7842 57.3033 62.8878 56.9834 62.9678C56.6794 63.0318 56.2549 63.0645 55.7109 63.0645C54.783 63.0644 53.8229 62.9282 52.8311 62.6562C51.8551 62.3683 50.967 61.9923 50.167 61.5283L48.3428 65.6562C49.1907 66.1682 50.2711 66.5843 51.583 66.9043C52.895 67.2243 54.2551 67.3838 55.6631 67.3838C57.4069 67.3838 58.8549 67.1281 60.0068 66.6162C61.1588 66.0882 62.0236 65.3998 62.5996 64.5518C63.1915 63.6878 63.4873 62.7436 63.4873 61.7197C63.4873 60.8398 63.3194 60.1037 62.9834 59.5117C62.6475 58.9199 62.1994 58.4402 61.6396 58.0723C61.0956 57.7043 60.4949 57.4076 59.8389 57.1836C59.1832 56.9597 58.5193 56.7842 57.8477 56.6562C57.1917 56.5283 56.5834 56.4079 56.0234 56.2959C55.4794 56.1839 55.0391 56.0477 54.7031 55.8877C54.3674 55.7118 54.1994 55.4801 54.1992 55.1924C54.1992 55.0004 54.2636 54.8241 54.3916 54.6641C54.5356 54.5042 54.7672 54.3762 55.0869 54.2803C55.4068 54.1843 55.839 54.1358 56.3828 54.1357C57.1188 54.1357 57.8716 54.2402 58.6396 54.4482C59.4235 54.6562 60.2316 54.9679 61.0635 55.3838L62.7676 51.2803C61.8876 50.7843 60.895 50.4158 59.791 50.1758C58.6872 49.9358 57.5674 49.8164 56.4316 49.8164ZM15.3682 50.2002V67H21.0322V62.7764H22.5752L25.4238 67H31.4717L27.9434 61.8291C28.8877 61.3486 29.6321 60.7048 30.1758 59.8965C30.7998 58.9525 31.1123 57.8321 31.1123 56.5361C31.1123 54.5841 30.4397 53.0403 29.0957 51.9043C27.7517 50.7683 25.7918 50.2002 23.2158 50.2002H15.3682ZM33.251 50.2002V67H47.2188V62.7275H38.8184V60.5195H45.9229V56.4404H38.8184V54.4717H46.9072V50.2002H33.251ZM23.0957 54.5684C23.8797 54.5684 24.4562 54.7437 24.8242 55.0957C25.2082 55.4477 25.4004 55.9281 25.4004 56.5361C25.4004 57.1439 25.208 57.6236 24.8242 57.9756C24.4562 58.3276 23.8797 58.5039 23.0957 58.5039H21.0322V54.5684H23.0957Z" fill="white"/>
</svg>
