<svg width="92" height="106" viewBox="0 0 92 106" fill="none" xmlns="http://www.w3.org/2000/svg">
<path d="M71 3.35461L13.5284 3.02853C10.7559 3.0128 8.5 5.25594 8.5 8.02845V98C8.5 100.761 10.7386 103 13.5 103H83.5C86.2614 103 88.5 100.761 88.5 98V23.2128M71 3.35461V18.2128C71 20.9742 73.2386 23.2128 76 23.2128H88.5M71 3.35461L88.5 23.2128" stroke="#B329E9" stroke-width="6"/>
<path d="M69 42C73.4183 42 77 45.5817 77 50V67C77 71.4183 73.4183 75 69 75H8C3.58172 75 0 71.4183 0 67V50C0 45.5817 3.58172 42 8 42H69ZM21.2002 49.8164C19.8083 49.8164 18.5283 50.032 17.3604 50.4639C16.2085 50.8798 15.2083 51.4798 14.3604 52.2637C13.5124 53.0477 12.8556 53.9759 12.3916 55.0479C11.9277 56.1197 11.6963 57.3038 11.6963 58.5996C11.6963 59.8956 11.9276 61.0803 12.3916 62.1523C12.8555 63.2242 13.5041 64.1516 14.3359 64.9355C15.1838 65.7194 16.1757 66.3278 17.3115 66.7598C18.4635 67.1758 19.7201 67.3838 21.0801 67.3838C22.3121 67.3838 23.5845 67.2 24.8965 66.832C26.0443 66.5101 27.0814 66.0649 28.0088 65.498L28.4004 65.248V58.1436H23.4805V62.4111C23.4157 62.438 23.352 62.4647 23.2881 62.4883C22.6801 62.6963 22.056 62.7998 21.416 62.7998C20.808 62.7998 20.2558 62.7037 19.7598 62.5117C19.2799 62.3037 18.8636 62.0163 18.5117 61.6484C18.1598 61.2805 17.8883 60.84 17.6963 60.3281C17.5043 59.8001 17.4082 59.2236 17.4082 58.5996C17.4082 57.9438 17.5043 57.3596 17.6963 56.8477C17.8882 56.336 18.16 55.8962 18.5117 55.5283C18.8637 55.1603 19.2882 54.8805 19.7842 54.6885C20.2962 54.4965 20.8643 54.4004 21.4883 54.4004C22.2402 54.4004 22.9204 54.5599 23.5283 54.8799C24.1522 55.1839 24.7279 55.6401 25.2559 56.248L28.8799 53.0557C28.0319 52.0158 26.9515 51.2162 25.6396 50.6562C24.3437 50.0963 22.864 49.8164 21.2002 49.8164ZM30.8135 50.2002V67H36.4775V62.7764H38.0205L40.8691 67H52.6318L53.7568 64.0723H60.1475L61.2725 67H67.1279L59.7842 50.2002H54.2158L46.8887 66.959L43.3887 61.8291C44.333 61.3486 45.0774 60.7048 45.6211 59.8965C46.2451 58.9525 46.5576 57.8321 46.5576 56.5361C46.5576 54.5841 45.885 53.0403 44.541 51.9043C43.197 50.7683 41.2371 50.2002 38.6611 50.2002H30.8135ZM58.5791 59.9922H55.3252L56.9512 55.7598L58.5791 59.9922ZM38.541 54.5684C39.325 54.5684 39.9015 54.7437 40.2695 55.0957C40.6535 55.4477 40.8457 55.9281 40.8457 56.5361C40.8457 57.1439 40.6533 57.6236 40.2695 57.9756C39.9015 58.3276 39.325 58.5039 38.541 58.5039H36.4775V54.5684H38.541Z" fill="#B329E9"/>
</svg>
