<svg width="89" height="106" viewBox="0 0 89 106" fill="none" xmlns="http://www.w3.org/2000/svg">
<path d="M68.5 3.32617L11.0284 3.00009C8.2559 2.98436 6 5.2275 6 8.00001V97.9716C6 100.733 8.23858 102.972 11 102.972H81C83.7614 102.972 86 100.733 86 97.9716V23.1843M68.5 3.32617V18.1843C68.5 20.9457 70.7386 23.1843 73.5 23.1843H86M68.5 3.32617L86 23.1843" stroke="#FFBC02" stroke-width="6"/>
<path d="M69 41.9716C73.4183 41.9716 77 45.5533 77 49.9716V66.9716C77 71.3898 73.4183 74.9716 69 74.9716H8C3.58172 74.9716 0 71.3898 0 66.9716V49.9716C0 45.5533 3.58172 41.9716 8 41.9716H69ZM65.0635 49.788C63.7196 49.788 62.4712 50.0035 61.3193 50.4354C60.1836 50.8514 59.1916 51.4514 58.3438 52.2352C57.5117 53.0192 56.8634 53.9474 56.3994 55.0194C55.9355 56.0913 55.7041 57.2753 55.7041 58.5712C55.7041 59.8672 55.9354 61.0519 56.3994 62.1239C56.8634 63.1957 57.5119 64.1232 58.3438 64.9071C59.1916 65.691 60.1835 66.2993 61.3193 66.7313C62.4712 67.1473 63.7196 67.3553 65.0635 67.3553C66.7115 67.3553 68.1676 67.0671 69.4316 66.4911C70.7115 65.8992 71.7677 65.0678 72.5996 63.996L69.0234 60.8036C68.5276 61.4274 67.976 61.9155 67.3682 62.2675C66.7762 62.6035 66.1036 62.7714 65.3516 62.7714C64.7597 62.7713 64.224 62.6752 63.7441 62.4833C63.2642 62.2913 62.8481 62.0114 62.4961 61.6434C62.1601 61.2754 61.8961 60.8351 61.7041 60.3231C61.5122 59.7952 61.416 59.211 61.416 58.5712C61.4161 57.9313 61.5121 57.3555 61.7041 56.8436C61.8961 56.3157 62.1601 55.8679 62.4961 55.4999C62.8481 55.1319 63.2641 54.852 63.7441 54.66C64.224 54.4681 64.7597 54.372 65.3516 54.3719C66.1036 54.3719 66.7762 54.5473 67.3682 54.8993C67.9761 55.2353 68.5275 55.7158 69.0234 56.3397L72.5996 53.1473C71.7676 52.0595 70.7115 51.2272 69.4316 50.6512C68.1677 50.0753 66.7114 49.788 65.0635 49.788ZM8.86816 50.1718V66.9716H14.5322V50.1718H8.86816ZM17.2588 50.1718V66.9716H22.7783V59.3319L29.1631 66.9716H33.8184V50.1718H28.2988V57.8104L21.915 50.1718H17.2588ZM36.5479 50.1718V66.9716H44.8281C46.6998 66.9715 48.3477 66.6356 49.7715 65.9637C51.1955 65.2758 52.3074 64.3074 53.1074 63.0594C53.9074 61.7954 54.3076 60.2992 54.3076 58.5712C54.3076 56.8274 53.9073 55.3317 53.1074 54.0839C52.3074 52.8359 51.1955 51.876 49.7715 51.204C48.3476 50.516 46.6999 50.1718 44.8281 50.1718H36.5479ZM44.5879 54.5878C45.3878 54.5878 46.0838 54.7398 46.6758 55.0438C47.2837 55.3478 47.7558 55.7956 48.0918 56.3876C48.4277 56.9795 48.5957 57.7074 48.5957 58.5712C48.5957 59.4192 48.4278 60.1477 48.0918 60.7557C47.7558 61.3477 47.2837 61.7955 46.6758 62.0995C46.0838 62.4035 45.3878 62.5555 44.5879 62.5555H42.2119V54.5878H44.5879Z" fill="#FFBC02"/>
</svg>
