<svg width="94" height="106" viewBox="0 0 94 106" fill="none" xmlns="http://www.w3.org/2000/svg">
<path d="M73 3.35461L15.5284 3.02853C12.7559 3.0128 10.5 5.25594 10.5 8.02845V98C10.5 100.761 12.7386 103 15.5 103H85.5C88.2614 103 90.5 100.761 90.5 98V23.2128M73 3.35461V18.2128C73 20.9742 75.2386 23.2128 78 23.2128H90.5M73 3.35461L90.5 23.2128" stroke="#C53131" stroke-width="6"/>
<path d="M69 42C73.4183 42 77 45.5817 77 50V67C77 71.4183 73.4183 75 69 75H8C3.58172 75 0 71.4183 0 67V50C0 45.5817 3.58172 42 8 42H69ZM13.3682 50.2002V67H19.0322V62.8721H21.4561C23.024 62.8721 24.3757 62.6155 25.5117 62.1035C26.6635 61.5756 27.5518 60.8403 28.1758 59.8965C28.7998 58.9525 29.1123 57.8321 29.1123 56.5361C29.1123 55.2401 28.7998 54.1198 28.1758 53.1758C27.5518 52.2159 26.6636 51.4797 25.5117 50.9678C24.3758 50.4559 23.0239 50.2002 21.4561 50.2002H13.3682ZM30.9697 50.2002V67H39.25C41.1217 66.9999 42.7695 66.6641 44.1934 65.9922C45.6173 65.3042 46.7293 64.3359 47.5293 63.0879C48.3293 61.8239 48.7295 60.3276 48.7295 58.5996C48.7294 56.8558 48.3292 55.3602 47.5293 54.1123C46.7293 52.8643 45.6174 51.9044 44.1934 51.2324C42.7695 50.5445 41.1218 50.2002 39.25 50.2002H30.9697ZM50.7979 50.2002V67H56.4619V61.624H63.4697V57.3516H56.4619V54.4717H64.4541V50.2002H50.7979ZM39.0098 54.6162C39.8097 54.6162 40.5057 54.7683 41.0977 55.0723C41.7056 55.3763 42.1777 55.8241 42.5137 56.416C42.8496 57.0079 43.0175 57.7358 43.0176 58.5996C43.0176 59.4476 42.8497 60.1762 42.5137 60.7842C42.1777 61.3761 41.7056 61.8239 41.0977 62.1279C40.5057 62.4319 39.8097 62.584 39.0098 62.584H36.6338V54.6162H39.0098ZM21.0957 54.5684C21.8797 54.5684 22.4562 54.7437 22.8242 55.0957C23.2082 55.4477 23.4004 55.9281 23.4004 56.5361C23.4004 57.1439 23.208 57.6236 22.8242 57.9756C22.4562 58.3276 21.8797 58.5039 21.0957 58.5039H19.0322V54.5684H21.0957Z" fill="#C53131"/>
</svg>
